<svg width="112" height="33" viewBox="0 0 112 33" fill="none" xmlns="http://www.w3.org/2000/svg">
<path d="M35.8684 9.108C36.9664 9.108 37.8754 8.712 38.4694 7.983L37.5334 7.119C37.1104 7.614 36.5794 7.866 35.9494 7.866C34.7704 7.866 33.9334 7.038 33.9334 5.85C33.9334 4.662 34.7704 3.834 35.9494 3.834C36.5794 3.834 37.1104 4.086 37.5334 4.572L38.4694 3.708C37.8754 2.988 36.9664 2.592 35.8774 2.592C33.9154 2.592 32.4574 3.951 32.4574 5.85C32.4574 7.749 33.9154 9.108 35.8684 9.108ZM42.289 2.592C40.561 2.592 39.4 3.636 39.4 5.553V9H40.84V7.488H43.72V9H45.178V5.553C45.178 3.636 44.017 2.592 42.289 2.592ZM40.84 6.318V5.418C40.84 4.347 41.407 3.834 42.28 3.834C43.144 3.834 43.72 4.347 43.72 5.418V6.318H40.84ZM54.5191 2.7V6.372C54.5191 7.416 54.0691 7.866 53.2771 7.866C52.4671 7.866 51.9991 7.416 51.9991 6.372V2.7H50.5411V6.372C50.5411 7.416 50.0731 7.866 49.2721 7.866C48.4621 7.866 48.0211 7.416 48.0211 6.372V2.7H46.5631V6.417C46.5631 8.181 47.5621 9.108 49.2901 9.108C50.1721 9.108 50.8381 8.829 51.2701 8.388C51.6931 8.829 52.3771 9.108 53.2591 9.108C54.9871 9.108 55.9861 8.181 55.9861 6.417V2.7H54.5191ZM35.8684 20.108C36.9664 20.108 37.8754 19.712 38.4694 18.983L37.5334 18.119C37.1104 18.614 36.5794 18.866 35.9494 18.866C34.7704 18.866 33.9334 18.038 33.9334 16.85C33.9334 15.662 34.7704 14.834 35.9494 14.834C36.5794 14.834 37.1104 15.086 37.5334 15.572L38.4694 14.708C37.8754 13.988 36.9664 13.592 35.8774 13.592C33.9154 13.592 32.4574 14.951 32.4574 16.85C32.4574 18.749 33.9154 20.108 35.8684 20.108ZM41.627 18.947C40.997 18.947 40.547 18.704 40.34 18.227L43.922 17.534C43.913 15.986 42.788 15.086 41.42 15.086C39.926 15.086 38.828 16.13 38.828 17.579C38.828 19.019 39.917 20.072 41.591 20.072C42.464 20.072 43.139 19.802 43.589 19.289L42.842 18.479C42.509 18.794 42.14 18.947 41.627 18.947ZM41.42 16.148C42.005 16.148 42.428 16.481 42.563 16.976L40.205 17.435C40.232 16.616 40.718 16.148 41.42 16.148ZM47.8088 15.086C47.1518 15.086 46.5848 15.311 46.2068 15.725V15.158H44.8658V20H46.2698V17.606C46.2698 16.715 46.7558 16.301 47.4308 16.301C48.0518 16.301 48.4118 16.661 48.4118 17.444V20H49.8158V17.228C49.8158 15.752 48.9518 15.086 47.8088 15.086ZM53.6354 18.776C53.4734 18.893 53.2664 18.956 53.0594 18.956C52.6814 18.956 52.4654 18.731 52.4654 18.317V16.346H53.6624V15.266H52.4654V14.087H51.0614V18.335C51.0614 19.487 51.7184 20.072 52.8704 20.072C53.2934 20.072 53.7164 19.973 54.0044 19.766L53.6354 18.776ZM56.1384 15.797V15.158H54.7974V20H56.2014V17.714C56.2014 16.787 56.7144 16.364 57.4884 16.364C57.5964 16.364 57.6864 16.373 57.8034 16.382V15.086C57.0564 15.086 56.4804 15.329 56.1384 15.797ZM62.1043 15.158V15.671C61.7533 15.275 61.2493 15.086 60.6553 15.086C59.2873 15.086 58.2343 16.058 58.2343 17.579C58.2343 19.1 59.2873 20.072 60.6553 20.072C61.3033 20.072 61.8163 19.865 62.1673 19.442V20H63.5083V15.158H62.1043ZM60.8983 18.92C60.1963 18.92 59.6563 18.416 59.6563 17.579C59.6563 16.742 60.1963 16.238 60.8983 16.238C61.5913 16.238 62.1313 16.742 62.1313 17.579C62.1313 18.416 61.5913 18.92 60.8983 18.92ZM66.5452 20.072C66.7882 20.072 67.0312 20.036 67.2742 19.955L67.2112 18.866C67.1302 18.911 66.9682 18.956 66.8152 18.956C66.4282 18.956 66.2122 18.731 66.2122 18.317V13.322H64.8082V18.398C64.8082 19.478 65.4562 20.072 66.5452 20.072ZM73.4463 13.592C71.7183 13.592 70.5573 14.636 70.5573 16.553V20H71.9973V18.488H74.8773V20H76.3353V16.553C76.3353 14.636 75.1743 13.592 73.4463 13.592ZM71.9973 17.318V16.418C71.9973 15.347 72.5643 14.834 73.4373 14.834C74.3013 14.834 74.8773 15.347 74.8773 16.418V17.318H71.9973ZM79.3043 20.072C80.7533 20.072 81.5903 19.433 81.5903 18.533C81.5903 16.625 78.6653 17.426 78.6653 16.598C78.6653 16.346 78.9353 16.148 79.5653 16.148C80.0063 16.148 80.4833 16.238 80.9603 16.508L81.4283 15.509C80.9693 15.239 80.2313 15.086 79.5653 15.086C78.1523 15.086 77.3243 15.734 77.3243 16.652C77.3243 18.587 80.2493 17.777 80.2493 18.569C80.2493 18.839 80.0063 19.01 79.3583 19.01C78.7643 19.01 78.1073 18.821 77.6753 18.542L77.2073 19.55C77.6573 19.847 78.4853 20.072 79.3043 20.072ZM83.1586 14.483C83.6806 14.483 84.0316 14.141 84.0316 13.673C84.0316 13.241 83.6806 12.917 83.1586 12.917C82.6366 12.917 82.2856 13.259 82.2856 13.7C82.2856 14.141 82.6366 14.483 83.1586 14.483ZM82.4566 20H83.8606V15.158H82.4566V20ZM88.6736 15.158V15.671C88.3226 15.275 87.8186 15.086 87.2246 15.086C85.8566 15.086 84.8036 16.058 84.8036 17.579C84.8036 19.1 85.8566 20.072 87.2246 20.072C87.8726 20.072 88.3856 19.865 88.7366 19.442V20H90.0776V15.158H88.6736ZM87.4676 18.92C86.7656 18.92 86.2256 18.416 86.2256 17.579C86.2256 16.742 86.7656 16.238 87.4676 16.238C88.1606 16.238 88.7006 16.742 88.7006 17.579C88.7006 18.416 88.1606 18.92 87.4676 18.92ZM40.7554 24.7V28.372C40.7554 29.416 40.3054 29.866 39.5134 29.866C38.7034 29.866 38.2354 29.416 38.2354 28.372V24.7H36.7774V28.372C36.7774 29.416 36.3094 29.866 35.5084 29.866C34.6984 29.866 34.2574 29.416 34.2574 28.372V24.7H32.7994V28.417C32.7994 30.181 33.7984 31.108 35.5264 31.108C36.4084 31.108 37.0744 30.829 37.5064 30.388C37.9294 30.829 38.6134 31.108 39.4954 31.108C41.2234 31.108 42.2224 30.181 42.2224 28.417V24.7H40.7554ZM47.075 26.158V26.671C46.724 26.275 46.22 26.086 45.626 26.086C44.258 26.086 43.205 27.058 43.205 28.579C43.205 30.1 44.258 31.072 45.626 31.072C46.274 31.072 46.787 30.865 47.138 30.442V31H48.479V26.158H47.075ZM45.869 29.92C45.167 29.92 44.627 29.416 44.627 28.579C44.627 27.742 45.167 27.238 45.869 27.238C46.562 27.238 47.102 27.742 47.102 28.579C47.102 29.416 46.562 29.92 45.869 29.92ZM51.1199 26.797V26.158H49.7789V31H51.1829V28.714C51.1829 27.787 51.6959 27.364 52.4699 27.364C52.5779 27.364 52.6679 27.373 52.7849 27.382V26.086C52.0379 26.086 51.4619 26.329 51.1199 26.797ZM56.0147 29.947C55.3847 29.947 54.9347 29.704 54.7277 29.227L58.3097 28.534C58.3007 26.986 57.1757 26.086 55.8077 26.086C54.3137 26.086 53.2157 27.13 53.2157 28.579C53.2157 30.019 54.3047 31.072 55.9787 31.072C56.8517 31.072 57.5267 30.802 57.9767 30.289L57.2297 29.479C56.8967 29.794 56.5277 29.947 56.0147 29.947ZM55.8077 27.148C56.3927 27.148 56.8157 27.481 56.9507 27.976L54.5927 28.435C54.6197 27.616 55.1057 27.148 55.8077 27.148ZM62.1965 26.086C61.5755 26.086 61.0355 26.284 60.6575 26.662V24.322H59.2535V31H60.6575V28.606C60.6575 27.715 61.1435 27.301 61.8185 27.301C62.4395 27.301 62.7995 27.661 62.7995 28.444V31H64.2035V28.228C64.2035 26.752 63.3395 26.086 62.1965 26.086ZM67.8329 31.072C69.3719 31.072 70.4879 30.037 70.4879 28.579C70.4879 27.121 69.3719 26.086 67.8329 26.086C66.2939 26.086 65.1689 27.121 65.1689 28.579C65.1689 30.037 66.2939 31.072 67.8329 31.072ZM67.8329 29.92C67.1309 29.92 66.5909 29.416 66.5909 28.579C66.5909 27.742 67.1309 27.238 67.8329 27.238C68.5349 27.238 69.0659 27.742 69.0659 28.579C69.0659 29.416 68.5349 29.92 67.8329 29.92ZM74.9003 26.158V28.552C74.9003 29.443 74.4323 29.857 73.7843 29.857C73.1633 29.857 72.8033 29.497 72.8033 28.687V26.158H71.3993V28.894C71.3993 30.388 72.2543 31.072 73.4693 31.072C74.0633 31.072 74.6033 30.847 74.9723 30.424V31H76.3043V26.158H74.9003ZM79.234 31.072C80.683 31.072 81.52 30.433 81.52 29.533C81.52 27.625 78.595 28.426 78.595 27.598C78.595 27.346 78.865 27.148 79.495 27.148C79.936 27.148 80.413 27.238 80.89 27.508L81.358 26.509C80.899 26.239 80.161 26.086 79.495 26.086C78.082 26.086 77.254 26.734 77.254 27.652C77.254 29.587 80.179 28.777 80.179 29.569C80.179 29.839 79.936 30.01 79.288 30.01C78.694 30.01 78.037 29.821 77.605 29.542L77.137 30.55C77.587 30.847 78.415 31.072 79.234 31.072ZM84.8253 29.947C84.1953 29.947 83.7453 29.704 83.5383 29.227L87.1203 28.534C87.1113 26.986 85.9863 26.086 84.6183 26.086C83.1243 26.086 82.0263 27.13 82.0263 28.579C82.0263 30.019 83.1153 31.072 84.7893 31.072C85.6623 31.072 86.3373 30.802 86.7873 30.289L86.0403 29.479C85.7073 29.794 85.3383 29.947 84.8253 29.947ZM84.6183 27.148C85.2033 27.148 85.6263 27.481 85.7613 27.976L83.4033 28.435C83.4303 27.616 83.9163 27.148 84.6183 27.148ZM95.0318 24.7V27.184H92.1698V24.7H90.7118V31H92.1698V28.417H95.0318V31H96.4898V24.7H95.0318ZM102.156 24.7V28.246C102.156 29.353 101.544 29.866 100.707 29.866C99.9154 29.866 99.3844 29.38 99.3844 28.345V24.7H97.9264V28.39C97.9264 30.145 98.8264 31.108 100.293 31.108C101.121 31.108 101.769 30.82 102.201 30.235V31H103.614V24.7H102.156ZM109.734 27.724C110.247 27.454 110.571 26.968 110.571 26.338C110.571 25.357 109.761 24.7 108.186 24.7H105.108V31H108.366C110.022 31 110.886 30.37 110.886 29.281C110.886 28.489 110.436 27.949 109.734 27.724ZM108.006 25.798C108.717 25.798 109.104 26.041 109.104 26.536C109.104 27.031 108.717 27.283 108.006 27.283H106.557V25.798H108.006ZM108.258 29.902H106.557V28.345H108.258C109.014 28.345 109.419 28.597 109.419 29.128C109.419 29.668 109.014 29.902 108.258 29.902Z" fill="white"/>
<rect x="0.000610352" y="1.00269" width="2.00253" height="18.1898" rx="1.00126" fill="white"/>
<path d="M0.883549 2.76709C0.395578 2.76709 0 2.37151 0 1.88354C0 1.39557 0.395579 0.999989 0.883551 0.999989L21.0707 0.999989C21.5587 0.999989 21.9543 1.39557 21.9543 1.88354C21.9543 2.37151 21.5587 2.76709 21.0707 2.76709L0.883549 2.76709Z" fill="white"/>
<rect x="0.000244141" y="19.1902" width="1.81898" height="12.0151" rx="0.909492" transform="rotate(-90 0.000244141 19.1902)" fill="white"/>
<rect x="22.106" y="30.8259" width="2.00252" height="19.6334" rx="1.00126" transform="rotate(180 22.106 30.8259)" fill="#F2994A"/>
<path d="M21.0859 29.0353C21.6126 29.0353 22.0396 29.4623 22.0396 29.9889C22.0396 30.5156 21.6126 30.9426 21.0859 30.9426H1.03896C0.51226 30.9426 0.085289 30.5156 0.085289 29.9889C0.085289 29.4623 0.51226 29.0353 1.03896 29.0353H21.0859Z" fill="#F2994A"/>
<rect x="22.1064" y="11.195" width="1.96333" height="12.0151" rx="0.981667" transform="rotate(90 22.1064 11.195)" fill="#F2994A"/>
</svg>
